<?xml version="1.0" encoding="utf-8"?>
<svg width="380" height="110px" viewBox="0 0 380 110" fill="none" xmlns="http://www.w3.org/2000/svg">
  <mask id="mask0" mask-type="alpha" maskUnits="userSpaceOnUse" x="0" y="0" width="380" height="110">
    <rect x="380" width="635" height="380" transform="rotate(90 380 0)" fill="#C4C4C4"/>
  </mask>
  <g mask="url(#mask0)">
    <path d="M-34.9644 111.803C0.727761 57.315 42.2138 7.62665 88.1404 -42.4047C61.5 -67.5993 35.3015 -90.6556 10.7077 -109.088C-19.7091 -45.7765 -34.0195 30.5803 -34.9644 111.803Z" fill="#F27126"/>
    <path d="M199.079 75.701C282.204 12.4099 375.191 -30.9105 467.997 -45.2888C405.632 -71.4766 338.635 -91.5954 268.257 -103.807C239.972 -50.9548 216.923 10.7257 199.079 75.701Z" fill="#F27126"/>
    <path d="M10.7079 -109.087C-1.64647 -99.7017 -13.7418 -89.2802 -25.217 -78.4243C-93.2433 -14.5809 -136.497 65.9911 -154.371 150.95C-118.093 136.84 -77.4667 122.85 -34.9642 111.805C-32.3678 28.7864 -19.0633 -45.3626 10.7079 -109.087Z" fill="#F27126"/>
    <path d="M268.265 -103.813C338.641 -91.6012 405.636 -71.4828 468 -45.2957C517.37 -52.8621 566.356 -52.5281 613.113 -41.7621C607.893 -47.8232 602.672 -53.8844 597.452 -59.9455C523.415 -139.043 426.882 -184.323 326.772 -195.521C304.99 -168.519 285.884 -137.109 268.265 -103.813Z" fill="#EF5025"/>
    <path d="M199.081 75.708C216.925 10.7328 240.208 -49.889 268.259 -103.8C234.774 -109.727 200.013 -113.713 165.758 -115.586C138.576 -92.9402 108.015 -65.6948 83.6499 -40.3416C120.264 -5.14139 161.657 31.8083 199.081 75.708Z" fill="#F27126"/>
    <path d="M199.075 75.7109C161.652 31.8113 124.516 -8.26771 88.1355 -42.4096C42.5242 4.8337 0.724458 57.3087 -34.967 111.796C37.3385 92.5089 117.098 78.8211 199.075 75.7109Z" fill="#F27126"/>
    <path d="M199.078 75.6962C288.694 72.0097 380.645 78.9055 469.103 102.664C503.294 69.0385 541.18 39.5917 582.116 13.9108C546.188 -8.12329 508.512 -27.6003 467.994 -45.2922C375.601 -31.5599 282.615 11.7598 199.078 75.6962Z" fill="#F59322"/>
  </g>
</svg>