<svg width="198" height="173" viewBox="0 0 198 173" fill="none" xmlns="http://www.w3.org/2000/svg">
<path d="M71.4363 57.2389L65.2931 74.3347L49.2768 75.7859C49.2768 75.7859 61.5184 66.1118 63.2038 55.0831C64.8891 44.0543 71.4363 57.2389 71.4363 57.2389Z" fill="#D4A79A"/>
<path d="M94.8971 25.111C94.8971 25.111 96.8838 29.8568 90.2452 41.0722C83.6065 52.2876 75.5726 61.2465 71.9296 59.5122C61.86 54.7182 60.2215 46.6589 58.3285 39.6147C56.007 30.9766 70.4005 15.1601 70.4005 15.1601L80.1822 13.0777L94.8971 25.111Z" fill="#EAC2AB"/>
<path d="M108.036 25.069C109.152 22.2127 108.974 19.0062 106.753 15.9193C106.11 15.0259 105.174 14.3212 104.085 14.1409C103.266 14.0046 102.375 14.164 101.621 13.8305C99.355 12.8365 100.047 9.47059 98.0402 8.2249C96.5423 7.29587 94.5512 8.28152 92.7631 8.21232C91.4126 8.15989 90.2005 7.4972 89.0018 6.9121C85.6267 5.26586 82.785 2.77867 79.2335 1.39876C76.2356 0.234856 72.9073 -0.28523 69.684 0.394238C66.32 1.10307 63.4158 3.2652 61.3644 6.10471C60.1389 7.80338 59.3063 9.8334 59.2728 11.8928C59.2996 10.2004 55.7771 11.1022 55.1007 11.5971C52.4555 13.5306 50.5604 18.7336 50.7389 21.8352C50.8796 24.291 51.6229 26.6293 51.6854 29.0997C51.8216 34.504 51.2032 43.5006 59.7215 43.6474C59.496 40.896 59.2929 38.0921 59.9112 35.3617C61.0162 30.4985 63.3176 24.0708 68.0991 21.3068C78.1955 15.4747 81.593 30.6453 89.2295 33.5162C96.3392 36.1943 105.507 31.5365 108.036 25.069Z" fill="#0065B3"/>
<path d="M62.5274 26.6293C62.5274 26.6293 59.8376 21.4326 58.3777 27.9064C56.92 34.3823 60.0764 36.6242 60.0764 36.6242L62.5274 26.6293Z" fill="#EAC2AB"/>
<path d="M79.5684 118.194C78.8384 109.323 77.5326 99.9405 75.3472 91.0613C73.6574 84.1974 72.0703 74.7981 64.8824 70.887C51.4198 63.5596 42.7564 81.6494 40.3791 91.1704C37.6691 102.017 38.0129 113.444 37.8879 124.515C37.7763 134.442 36.2896 145.383 37.7272 155.141C37.9817 156.863 38.6513 158.629 40.0867 159.725C43.7364 162.514 47.5 158.817 50.5715 157.173C53.4444 155.634 56.487 155.888 59.5384 154.854C62.2194 153.946 63.5386 152.062 65.782 150.599C71.6662 146.757 78.0013 152.937 84.3789 151.779C98.2411 149.263 87.658 152.813 82.0796 126.649C81.5104 123.984 79.8273 121.352 79.5684 118.194Z" fill="#EF5025"/>
<path d="M115.606 98.6403C120.871 95.4506 122.912 88.291 127.782 84.4532C129.767 82.8909 132.12 81.964 134.452 81.1062C137.783 79.8794 141.147 78.7491 144.535 77.7173C144.323 79.3447 142.989 80.5505 141.602 81.2698C140.216 81.9891 138.683 82.3981 137.392 83.2998C136.823 83.6962 136.301 84.2037 136.006 84.8559C135.343 86.3218 135.986 88.0834 135.707 89.6835C135.182 92.6845 131.905 93.9092 129.394 95.3772C124.209 98.4075 120.858 104.378 115.454 106.937C115.454 106.937 74.8984 138.572 69.8982 137.697C64.898 136.823 57.9981 93.6743 57.9981 93.6743C57.9981 93.6743 53.239 71.4364 65.7418 82.0898C78.2446 92.7432 70.5478 128.132 76.7267 124.479C82.901 120.824 115.606 98.6403 115.606 98.6403Z" fill="#EAC2AB"/>
<path d="M74.7445 99.7057C74.7445 99.7057 73.3091 72.2962 61.2081 74.559C49.1071 76.8218 56.8776 107.589 56.8776 107.589L76.624 103.617L74.7445 99.7057Z" fill="#F59322"/>
<path d="M102.034 166.765H20.3604C16.7263 166.765 13.7529 163.972 13.7529 160.558V151.807C13.7529 148.393 16.7263 145.599 20.3604 145.599H102.034C105.668 145.599 108.641 148.393 108.641 151.807V160.558C108.639 163.972 105.666 166.765 102.034 166.765Z" fill="#E3E5FC"/>
<path d="M59.2371 172.052H4.6208C2.18988 172.052 0.203186 170.184 0.203186 167.902V162.051C0.203186 159.767 2.19212 157.901 4.6208 157.901H59.2371C61.668 157.901 63.6547 159.769 63.6547 162.051V167.902C63.6547 170.186 61.6658 172.052 59.2371 172.052Z" fill="#0065B3"/>
<path d="M56.4155 165.325L56.2146 165.555C56.1365 165.646 55.9936 165.658 55.8976 165.585L51.3416 162.099C51.2456 162.026 51.2323 161.892 51.3104 161.802L51.5113 161.571C51.5894 161.481 51.7323 161.468 51.8283 161.542L56.3843 165.027C56.478 165.1 56.4937 165.235 56.4155 165.325Z" fill="white"/>
<path d="M56.4155 165.142L56.2146 164.912C56.1365 164.821 55.9936 164.809 55.8976 164.882L51.3416 168.368C51.2456 168.441 51.2323 168.575 51.3104 168.665L51.5113 168.896C51.5894 168.986 51.7323 168.999 51.8283 168.925L56.3843 165.44C56.478 165.365 56.4937 165.23 56.4155 165.142Z" fill="white"/>
<path d="M50.0537 165.325L49.8528 165.555C49.7747 165.646 49.6318 165.658 49.5358 165.585L44.9798 162.099C44.8838 162.026 44.8704 161.892 44.9486 161.802L45.1495 161.571C45.2276 161.481 45.3705 161.468 45.4664 161.542L50.0225 165.027C50.1184 165.1 50.1318 165.235 50.0537 165.325Z" fill="white"/>
<path d="M50.0537 165.142L49.8528 164.912C49.7747 164.821 49.6318 164.809 49.5358 164.882L44.9798 168.368C44.8838 168.441 44.8704 168.575 44.9486 168.665L45.1495 168.896C45.2276 168.986 45.3705 168.999 45.4664 168.925L50.0225 165.44C50.1184 165.365 50.1318 165.23 50.0537 165.142Z" fill="white"/>
<path d="M43.1113 165.325L42.9104 165.555C42.8323 165.646 42.6894 165.658 42.5934 165.585L38.0374 162.099C37.9414 162.026 37.9281 161.892 38.0062 161.802L38.2071 161.571C38.2852 161.481 38.4281 161.468 38.5241 161.542L43.0801 165.027C43.1761 165.1 43.1895 165.235 43.1113 165.325Z" fill="white"/>
<path d="M43.1113 165.142L42.9104 164.912C42.8323 164.821 42.6894 164.809 42.5934 164.882L38.0374 168.368C37.9414 168.441 37.9281 168.575 38.0062 168.665L38.2071 168.896C38.2852 168.986 38.4281 168.999 38.5241 168.925L43.0801 165.44C43.1761 165.365 43.1895 165.23 43.1113 165.142Z" fill="white"/>
<path opacity="0.26" d="M188.433 106.44L105.755 133.369C100.509 133.369 96.2566 129.374 96.2566 124.445V86.0932C96.2566 81.165 100.509 77.1699 105.755 77.1699L188.433 50.2408C193.678 50.2408 197.931 54.2358 197.931 59.164V97.5162C197.931 102.444 193.678 106.44 188.433 106.44Z" fill="#A7ADFF"/>
<path opacity="0.13" d="M183.33 104.177L100.652 131.106C95.4062 131.106 91.1537 127.111 91.1537 122.183V83.8325C91.1537 78.9042 95.4062 74.9092 100.652 74.9092L183.33 47.98C188.576 47.98 192.828 51.9751 192.828 56.9033V95.2534C192.828 100.182 188.576 104.177 183.33 104.177Z" fill="#A7ADFF"/>
<path opacity="0.39" d="M133.58 92.7118L108.07 101.021C106.451 101.021 105.139 99.7875 105.139 98.267V86.433C105.139 84.9126 106.451 83.6794 108.07 83.6794L133.58 75.3706C135.198 75.3706 136.511 76.6037 136.511 78.1242V89.9582C136.511 91.4786 135.198 92.7118 133.58 92.7118Z" fill="white"/>
<path d="M191.411 37.4085L165.9 45.7173C164.282 45.7173 162.97 44.4842 162.97 42.9637V31.1297C162.97 29.6093 164.282 28.3762 165.9 28.3762L191.411 20.0674C193.029 20.0674 194.341 21.3005 194.341 22.8209V34.6549C194.341 36.1754 193.029 37.4085 191.411 37.4085Z" fill="#64B4EA"/>
<path d="M181.74 34.2691L157.588 42.1354C156.054 42.1354 154.813 40.9673 154.813 39.5287V28.3258C154.813 26.8851 156.056 25.7191 157.588 25.7191L181.74 17.8528C183.274 17.8528 184.515 19.0209 184.515 20.4595V31.6624C184.515 33.1031 183.272 34.2691 181.74 34.2691Z" fill="#E3E5FC"/>
<path d="M190.053 125.59L165.9 133.457C164.367 133.457 163.126 132.289 163.126 130.85V119.647C163.126 118.207 164.369 117.041 165.9 117.041L190.053 109.174C191.587 109.174 192.828 110.342 192.828 111.781V122.984C192.828 124.424 191.587 125.59 190.053 125.59Z" fill="#E3E5FC"/>
<path d="M149.973 129.407L124.463 137.716C122.845 137.716 121.532 136.483 121.532 134.963V123.131C121.532 121.61 122.845 120.377 124.463 120.377L149.973 112.068C151.592 112.068 152.904 113.301 152.904 114.822V126.656C152.904 128.174 151.592 129.407 149.973 129.407Z" fill="#64B4EA"/>
<path opacity="0.51" d="M133.58 114.337L108.07 122.646C106.451 122.646 105.139 121.413 105.139 119.893V108.058C105.139 106.538 106.451 105.305 108.07 105.305L133.58 96.9962C135.198 96.9962 136.511 98.2293 136.511 99.7497V111.584C136.511 113.104 135.198 114.337 133.58 114.337Z" fill="white"/>
<path opacity="0.51" d="M145.833 106.995V106.995C145.21 106.995 144.699 106.515 144.699 105.93V88.0666C144.699 87.4815 145.21 87.0013 145.833 87.0013V87.0013C146.455 87.0013 146.967 87.4815 146.967 88.0666V105.93C146.967 106.515 146.458 106.995 145.833 106.995Z" fill="white"/>
<path opacity="0.51" d="M151.933 72.0571V72.0571C151.723 71.5056 152.034 70.8932 152.621 70.6961L182.792 60.5817C183.379 60.3846 184.031 60.6761 184.241 61.2276V61.2276C184.45 61.7791 184.14 62.3915 183.553 62.5886L153.382 72.703C152.795 72.9002 152.143 72.6087 151.933 72.0571Z" fill="white"/>
<path opacity="0.51" d="M151.933 75.92V75.92C151.723 75.3685 152.034 74.7561 152.621 74.559L182.792 64.4445C183.379 64.2474 184.031 64.5389 184.241 65.0905V65.0905C184.45 65.642 184.14 66.2544 183.553 66.4515L153.382 76.5659C152.795 76.761 152.143 76.4716 151.933 75.92Z" fill="white"/>
<path opacity="0.51" d="M151.933 79.7809V79.7809C151.723 79.2293 152.034 78.617 152.621 78.4198L182.792 68.3054C183.379 68.1083 184.031 68.3998 184.241 68.9513V68.9513C184.45 69.5028 184.14 70.1152 183.553 70.3123L153.382 80.4268C152.795 80.6239 152.143 80.3324 151.933 79.7809Z" fill="white"/>
<path opacity="0.51" d="M151.933 83.6438V83.6438C151.723 83.0922 152.034 82.4799 152.621 82.2827L182.792 72.1683C183.379 71.9712 184.031 72.2627 184.241 72.8142V72.8142C184.45 73.3658 184.14 73.9781 183.553 74.1752L153.382 84.2897C152.795 84.4847 152.143 84.1953 151.933 83.6438Z" fill="white"/>
<path opacity="0.51" d="M151.933 87.5046V87.5046C151.723 86.953 152.034 86.3406 152.621 86.1435L182.792 76.0291C183.379 75.8319 184.031 76.1234 184.241 76.675V76.675C184.45 77.2265 184.14 77.8389 183.553 78.036L153.382 88.1505C152.795 88.3476 152.143 88.0561 151.933 87.5046Z" fill="white"/>
<path opacity="0.51" d="M151.933 91.3654V91.3654C151.723 90.8138 152.034 90.2015 152.621 90.0043L182.792 79.8899C183.379 79.6928 184.031 79.9843 184.241 80.5358V80.5358C184.45 81.0874 184.14 81.6997 183.553 81.8969L153.382 92.0113C152.795 92.2084 152.143 91.9169 151.933 91.3654Z" fill="white"/>
<path opacity="0.51" d="M151.933 95.2283V95.2283C151.723 94.6767 152.034 94.0644 152.621 93.8672L182.792 83.7528C183.379 83.5557 184.031 83.8472 184.241 84.3987V84.3987C184.45 84.9503 184.14 85.5626 183.553 85.7598L153.382 95.8742C152.795 96.0692 152.143 95.7798 151.933 95.2283Z" fill="white"/>
<path opacity="0.51" d="M151.933 99.0891V99.0891C151.723 98.5375 152.034 97.9252 152.621 97.728L182.792 87.6136C183.379 87.4165 184.031 87.708 184.241 88.2595V88.2595C184.45 88.8111 184.14 89.4234 183.553 89.6206L153.382 99.735C152.795 99.9321 152.143 99.6406 151.933 99.0891Z" fill="white"/>
<path opacity="0.51" d="M151.933 102.952V102.952C151.723 102.4 152.034 101.788 152.621 101.591L182.792 91.4765C183.379 91.2794 184.031 91.5709 184.241 92.1224V92.1224C184.45 92.674 184.14 93.2863 183.553 93.4835L153.382 103.598C152.795 103.793 152.143 103.504 151.933 102.952Z" fill="white"/>
<path opacity="0.51" d="M151.933 106.813V106.813C151.723 106.261 152.034 105.649 152.621 105.452L182.792 95.3373C183.379 95.1402 184.031 95.4317 184.241 95.9832V95.9832C184.45 96.5348 184.14 97.1471 183.553 97.3443L153.382 107.459C152.795 107.656 152.143 107.364 151.933 106.813Z" fill="white"/>
<path d="M138.238 41.2672C138.52 41.1036 138.814 40.9568 139.114 40.8268C143.098 39.1092 147.826 40.7576 149.656 44.5009C151.485 48.2443 149.73 52.686 145.745 54.4036L144.951 52.7762C147.98 51.4697 149.313 48.0933 147.924 45.2475C146.533 42.4017 142.94 41.1497 139.91 42.4542C139.683 42.5527 139.457 42.666 139.243 42.7897L138.238 41.2672Z" fill="#E3E5FC"/>
<path d="M142.998 54.6028L146.516 54.9132L145.042 51.8933L142.998 54.6028Z" fill="#E3E5FC"/>
<path d="M142.323 55.8149C142.042 55.9785 141.748 56.1253 141.448 56.2553C137.464 57.9729 132.734 56.3245 130.906 52.5812C129.077 48.8378 130.832 44.3961 134.816 42.6785L135.611 44.3059C132.582 45.6124 131.249 48.9888 132.638 51.8346C134.028 54.6804 137.622 55.9324 140.652 54.628C140.879 54.5294 141.105 54.4161 141.319 54.2924L142.323 55.8149Z" fill="#E3E5FC"/>
<path d="M137.567 42.4793L134.046 42.1689L135.52 45.1867L137.567 42.4793Z" fill="#E3E5FC"/>
<path opacity="0.36" d="M145.833 82.5344C149.049 82.5344 151.656 80.0848 151.656 77.063C151.656 74.0412 149.049 71.5916 145.833 71.5916C142.616 71.5916 140.009 74.0412 140.009 77.063C140.009 80.0848 142.616 82.5344 145.833 82.5344Z" fill="#EF5025"/>
<path d="M145.833 79.7998C147.441 79.7998 148.746 78.5745 148.746 77.063C148.746 75.5515 147.441 74.3262 145.833 74.3262C144.224 74.3262 142.919 75.5515 142.919 77.063C142.919 78.5745 144.224 79.7998 145.833 79.7998Z" fill="#EF5025"/>
<path opacity="0.36" d="M145.833 80.9322C148.107 80.9322 149.951 79.1999 149.951 77.063C149.951 74.9261 148.107 73.1938 145.833 73.1938C143.558 73.1938 141.714 74.9261 141.714 77.063C141.714 79.1999 143.558 80.9322 145.833 80.9322Z" fill="#EF5025"/>
</svg>
