<svg width="97" height="45" viewBox="0 0 97 45" fill="none" xmlns="http://www.w3.org/2000/svg">
<path d="M23.2183 31.8816C27.508 30.273 31.6886 28.0717 35.3536 25.1688C32.0669 23.9094 28.9655 22.1792 26.1546 20.0939C25.3712 24.1681 24.3684 28.1772 23.2183 31.8816" fill="#EE3123"/>
<path d="M37.0528 16.4632C35.2029 14.5101 33.7626 12.0908 32.7492 9.46737C30.9503 9.27469 29.2931 8.96274 27.7251 8.50938C27.4429 12.2926 26.8987 16.2229 26.1545 20.0942C29.8107 19.5909 33.4935 18.4012 37.0528 16.4632Z" fill="#F7931D"/>
<path d="M26.1545 20.0939C28.9654 22.1792 32.0669 23.9094 35.3536 25.1692C37.4335 23.5211 39.3473 21.6479 41.0209 19.5268C39.5387 18.7322 38.2158 17.6898 37.0528 16.4628C33.4931 18.4005 29.8107 19.5906 26.1545 20.0939" fill="#F26521"/>
<path d="M26.1543 20.0939C23.9865 18.4853 21.9924 16.6657 20.2188 14.6869C18.8203 16.4707 17.2408 18.149 15.5487 19.6333C18.9598 20.4174 22.5438 20.5903 26.1543 20.0939" fill="#F04E22"/>
<path d="M18.1037 44.3413C23.1686 45.5961 28.3427 45.0153 32.8414 42.9635C30.3924 42.712 27.9318 42.2133 25.5051 41.5035C23.1768 42.6469 20.7047 43.6062 18.1037 44.3413" fill="#21409A"/>
<path d="M11.4843 34.8917C13.1743 38.6681 15.3865 41.9665 18.1033 44.3417C18.8821 42.9639 19.6447 41.397 20.3793 39.6807C17.2644 38.3735 14.2652 36.7475 11.4843 34.8917Z" fill="#21409A"/>
<path d="M18.1037 44.3413C20.7047 43.6062 23.1768 42.6469 25.5051 41.5035C23.7733 40.9979 22.0602 40.3855 20.3797 39.6803C19.645 41.3967 18.8814 42.9635 18.1037 44.3413Z" fill="#0066B3"/>
<path d="M23.2183 31.8817C25.363 34.5745 27.6725 36.9799 30.059 38.9285C33.1322 36.9451 35.8876 34.6396 38.282 32.1391C33.6754 33.3292 28.4052 33.1852 23.2183 31.8817" fill="#812990"/>
<path d="M8.29858 24.3637C8.96484 28.0388 10.0301 31.6423 11.4846 34.892C15.2786 34.3282 19.2943 33.3528 23.2186 31.8813C17.8842 30.5403 12.6394 27.9714 8.29858 24.3637Z" fill="#812990"/>
<path d="M23.2182 31.8816C20.2806 28.1946 17.6506 23.9685 15.5486 19.6333C13.2786 21.6259 10.8062 23.2716 8.29822 24.3627V24.364C12.639 27.9721 17.8839 30.5409 23.2182 31.8816" fill="#B8282E"/>
<path d="M7.48663 16.4474C7.54813 19.0534 7.82087 21.7265 8.29923 24.364C10.8072 23.2713 13.2783 21.6255 15.5483 19.6333C12.713 18.9814 9.99816 17.9087 7.48663 16.4474Z" fill="#E31F26"/>
<path d="M26.1543 20.0939C22.5438 20.5903 18.9598 20.4174 15.5487 19.6333C17.6504 23.9685 20.2817 28.1946 23.218 31.8816C24.3681 28.1772 25.3722 24.1681 26.1543 20.0939" fill="#D22329"/>
<path d="M35.3533 25.1695C37.6434 26.0476 40.0227 26.6969 42.4576 27.0796C43.8351 25.1314 45.0097 23.1237 45.9674 21.1045C44.1625 20.875 42.5123 20.3264 41.0206 19.5272C39.3483 21.6473 37.4345 23.5215 35.3533 25.1695" fill="#F47920"/>
<path d="M8.29857 24.3638C5.72189 22.2216 3.46465 19.7129 1.69695 16.8784C0.921527 19.8638 0.78927 22.8906 1.22353 25.7994C3.52027 25.9339 5.92619 25.3971 8.29857 24.3638" fill="#91268F"/>
<path d="M8.29858 24.3638C7.82055 21.7262 7.54883 19.0531 7.48731 16.4471C5.89859 15.524 4.39177 14.444 2.98862 13.2194C2.75436 13.7356 2.53854 14.2655 2.34115 14.8073C2.09142 15.4937 1.87693 16.1851 1.69696 16.8784C3.46466 19.7129 5.7219 22.2216 8.29858 24.3638Z" fill="#C9242B"/>
<path d="M1.2229 25.799C1.74403 29.2875 3.07976 32.6055 5.10277 35.4739C7.11195 35.4101 9.26031 35.2221 11.484 34.8917C7.51462 32.2426 3.99208 29.1253 1.2229 25.799Z" fill="#0054A6"/>
<path d="M8.2986 24.3637C5.92622 25.3957 3.5203 25.9329 1.22223 25.7994C3.99272 29.1244 7.51399 32.2419 11.4846 34.892C10.0301 31.6423 8.96486 28.0388 8.2986 24.3637Z" fill="#293896"/>
<path d="M18.1036 44.3413C15.3864 41.9661 13.1733 38.6677 11.4846 34.8917C9.26084 35.2221 7.11253 35.4101 5.10236 35.4739C7.65932 39.098 11.3105 42.0068 15.7951 43.6375C16.5613 43.9159 17.3308 44.15 18.1036 44.3413" fill="#0066B3"/>
<path d="M25.5047 41.5039C27.9314 42.2137 30.3919 42.7124 32.841 42.9629C33.4595 42.6812 34.0642 42.3715 34.6551 42.0352C33.1068 41.2107 31.5678 40.1609 30.059 38.9282C28.6104 39.8628 27.0901 40.7258 25.5047 41.5039" fill="#0054A6"/>
<path d="M38.2817 32.1387C40.7675 31.4963 43.0587 30.4663 45.0399 29.0201C45.2011 28.4866 45.3429 27.9497 45.4646 27.4125C44.4549 27.3478 43.4512 27.2364 42.4576 27.0799C41.2239 28.8252 39.8286 30.5232 38.2817 32.1387Z" fill="#E44126"/>
<path d="M45.9673 21.1045C45.0099 23.1237 43.8354 25.1314 42.4576 27.0799C43.4511 27.2364 44.4552 27.3488 45.4636 27.4126C45.9383 25.3066 46.0976 23.1842 45.9673 21.1045Z" fill="#F7931D"/>
<path d="M30.0587 38.9285C31.5675 40.1613 33.1065 41.2107 34.6548 42.0355C39.1255 39.4874 42.75 35.4039 44.6477 30.1932C44.7892 29.8033 44.9204 29.4125 45.0389 29.0206C43.059 30.4667 40.7678 31.4967 38.2816 32.1391C35.8872 34.6396 33.1331 36.9451 30.0587 38.9285Z" fill="#9D2C4E"/>
<path d="M27.7252 8.50906C29.2932 8.96374 30.9504 9.27569 32.7493 9.46704C31.7433 6.86104 31.1583 4.05317 31.0119 1.29758C29.9801 0.932316 28.9379 0.645997 27.8947 0.437246C27.9989 2.99198 27.9341 5.71072 27.7252 8.50906" fill="#FCAF16"/>
<path d="M27.7252 8.50903C27.9341 5.7107 27.9989 2.99196 27.8946 0.437237C27.3514 0.328062 26.807 0.239969 26.2638 0.172583C26.2592 2.43999 25.6604 4.89871 24.6135 7.36794C25.6186 7.81898 26.6503 8.19836 27.7252 8.50903Z" fill="#F99C1B"/>
<path d="M7.48666 16.4474C9.99818 17.9087 12.7131 18.9814 15.5483 19.6333C12.9799 14.3365 11.202 8.87756 10.6193 4.04589C9.92747 4.52721 9.26123 5.04791 8.62528 5.60713C7.76992 8.83941 7.39517 12.5681 7.48666 16.4474Z" fill="#F04E22"/>
<path d="M20.2191 14.6876C16.9844 11.0783 14.4844 6.94159 13.0128 2.59353C12.1876 3.02717 11.3879 3.51209 10.6193 4.04663C11.202 8.87828 12.9802 14.3362 15.5487 19.634C17.2407 18.1481 18.8206 16.4711 20.2191 14.6876" fill="#F37021"/>
<path d="M24.6135 7.36729C21.6562 6.03717 18.9311 4.06764 16.0329 1.27754C14.9953 1.64276 13.9856 2.08232 13.0128 2.59383C14.4847 6.94057 16.9834 11.0786 20.2191 14.6876C22.0404 12.3647 23.5561 9.86188 24.6135 7.36729" fill="#F7931D"/>
<path d="M32.7493 9.46708C33.7626 12.0915 35.2029 14.5098 37.0529 16.4629C39.2351 15.2751 41.3706 13.8056 43.4235 12.0405C42.9791 11.195 42.4823 10.3787 41.9335 9.59465C38.4481 9.77216 35.4408 9.75473 32.7493 9.46708Z" fill="#F5821F"/>
<path d="M41.0205 19.5272C42.3056 17.8989 43.4489 16.1246 44.4154 14.1972C44.1229 13.4618 43.791 12.7415 43.4232 12.0412C41.3699 13.805 39.2344 15.2745 37.0525 16.4633C38.2155 17.6902 39.5397 18.733 41.0205 19.5272Z" fill="#F7931D"/>
<path d="M45.9673 21.1045C45.8176 18.7191 45.2873 16.3879 44.4158 14.1971C43.4489 16.1246 42.3056 17.8992 41.0209 19.5275C42.5112 20.3263 44.1615 20.875 45.9673 21.1045" fill="#F26521"/>
<path d="M26.1542 20.0939C26.8984 16.2225 27.4426 12.2933 27.7248 8.50903C26.65 8.19803 25.6183 7.81897 24.6132 7.3676C23.5558 9.86119 22.0398 12.3653 20.2188 14.6869C21.9924 16.6657 23.9865 18.4853 26.1542 20.0939" fill="#F5821F"/>
<path d="M23.2183 31.8816C22.3455 34.6918 21.3891 37.3267 20.3794 39.6809C22.0599 40.386 23.7743 40.9985 25.5048 41.5042C27.0903 40.726 28.6106 39.863 30.0591 38.9284C27.6726 36.9799 25.363 34.5744 23.2183 31.8816" fill="#21409A"/>
<path d="M23.2183 31.8816C19.294 33.3534 15.2796 34.3288 11.4843 34.8913C14.2649 36.7468 17.2654 38.3738 20.3793 39.6809C21.389 37.3267 22.3454 34.6918 23.2183 31.8816Z" fill="#9A258F"/>
<path d="M23.2183 31.8817C28.4052 33.1852 33.6754 33.3292 38.282 32.1391C39.8279 30.5223 41.2242 28.8256 42.4579 27.0803C40.0231 26.6976 37.6437 26.047 35.3536 25.1689C31.6886 28.0718 27.508 30.2731 23.2183 31.8817Z" fill="#D22329"/>
<path d="M8.62522 5.60658C6.28309 7.66193 4.33907 10.2295 2.98822 13.2195C4.39139 14.4441 5.89915 15.5237 7.48692 16.4471C7.39511 12.5676 7.76885 8.83886 8.62522 5.60658Z" fill="#F37021"/>
<path d="M41.9336 9.5943C39.3756 5.93758 35.707 3.00446 31.1922 1.36238C31.1329 1.34034 31.0724 1.31931 31.0122 1.29727C31.1583 4.05288 31.7432 6.86203 32.7496 9.46674C35.4412 9.75438 38.4472 9.77182 41.9336 9.5943Z" fill="#FFC20D"/>
<path d="M26.2637 0.172263C22.755 -0.266309 19.2581 0.143319 16.0326 1.27755C18.9308 4.06797 21.6558 6.03719 24.6132 7.36731C25.66 4.8994 26.2591 2.43968 26.2637 0.172263Z" fill="#FFC20D"/>
<path d="M89.5521 17.775C89.5521 16.4839 89.6002 15.6861 89.9818 14.9115C91.1013 15.0519 93.2499 15.3185 94.5343 14.9589C96.8526 14.3073 97.0045 11.604 96.9751 10.0569C95.665 9.95694 94.058 9.98257 92.437 10.218C88.051 10.8278 84.809 13.972 84.809 19.089V34.9509H89.5521V22.8893H92.7941C95.0312 22.8893 95.3448 21.3679 95.3448 19.112H89.5521V17.775ZM76.918 26.9961C76.918 25.5884 76.918 24.1813 77.2527 23.3114C78.2762 23.4298 79.8077 23.5413 80.7328 23.2651C83.0794 22.5658 83.0454 19.975 83.0454 18.4742C81.7106 18.3884 80.4536 18.4489 79.0162 18.6655C75.0072 19.2711 72.1749 22.2805 72.1749 27.3962V34.9509H76.918V26.9961ZM64.5702 30.8918C60.7098 31.8777 57.9917 29.8595 57.9917 26.1519V22.8893C58.826 22.3965 59.7083 22.0684 61.0193 22.0684C65.5965 22.0684 66.5011 26.8557 64.5702 30.8918V30.8918ZM62.3541 18.1971C60.6366 18.1971 59.0404 18.8302 57.9917 19.4878V10.1019C56.1079 10.0776 54.0829 10.9695 53.2239 11.721V26.0812C53.2239 31.9484 56.9668 34.9985 61.6862 34.9985C66.3823 34.9985 70.2441 31.2199 70.2441 26.1285C70.2441 21.9744 67.2869 18.1971 62.3541 18.1971Z" fill="#231F20"/>
</svg>
