<svg width="757" height="908" viewBox="0 0 757 908" fill="none" xmlns="http://www.w3.org/2000/svg">
<mask id="mask0" mask-type="alpha" maskUnits="userSpaceOnUse" x="0" y="0" width="757" height="908">
<rect width="757" height="908" fill="#C4C4C4"/>
</mask>
<g mask="url(#mask0)">
<circle cx="85.5005" cy="444.5" r="671.5" fill="#EF5025"/>
<path d="M-35.3892 1073.19C-88.082 958.627 -132.389 840.509 -161.967 724.554C-260.357 660.286 -351.193 588.534 -436.477 510.72C-372.236 730.725 -234.157 930.858 -35.3892 1073.19Z" fill="#EF5025"/>
<path d="M500.647 1018.05C350.816 976.01 207.741 917.31 60.6836 848.741C22.4998 927.586 -11.1322 1003.88 -35.3896 1073.19C130.737 1096.86 314.968 1074.43 500.647 1018.05Z" fill="#F27126"/>
<path d="M-35.3893 1073.19C-11.1319 1003.88 22.0252 929.351 60.209 850.506C-16.8681 812.796 -92.5644 769.684 -161.968 724.554C-132.39 840.509 -89.8504 958.154 -35.3893 1073.19Z" fill="#F27126"/>
<path d="M249.769 510.878C45.6965 367.12 -119.996 186.505 -219.637 -14.5564C-234.334 146.392 -231.87 313.519 -208.959 482.649C-68.1895 508.997 88.9131 517.053 249.769 510.878Z" fill="#F27126"/>
<path d="M-35.3894 1073.19C-5.10852 1094.57 27.3461 1114.62 60.3429 1132.94C254.787 1241.89 469.478 1282.36 675.87 1261.86C617.584 1189.38 556.437 1106.92 500.648 1018.05C309.687 1071.96 131.211 1095.09 -35.3894 1073.19Z" fill="#F27126"/>
<path d="M249.768 510.88C88.9126 517.055 -65.9474 507.702 -208.959 482.649C-198.325 563.204 -182.348 645.267 -161.924 724.655C-90.7528 770.259 -6.66873 820.244 68.6401 857.48C122.426 748.701 176.751 627.773 249.768 510.88Z" fill="#F27126"/>
<path d="M249.767 510.879C176.75 627.772 112.227 741.256 60.6838 848.741C201.166 918.602 350.816 976.01 500.648 1018.05C404.602 867.231 315.937 695.391 249.767 510.879Z" fill="#F27126"/>
<path d="M249.768 510.879C176.779 309.377 126.21 94.9311 116.566 -123.712C15.334 -177.37 -79.0451 -242.459 -167.045 -317.21C-191.336 -219.481 -208.544 -119.613 -219.637 -14.5564C-121.764 186.031 43.9279 366.647 249.768 510.879Z" fill="#F59322"/>
</g>
</svg>
