<?xml version="1.0" encoding="utf-8"?>
<svg width="325px" height="768" viewBox="0 0 325 768" fill="none" xmlns="http://www.w3.org/2000/svg">
  <g clip-path="url(#clip0)">
    <path d="M 425.648 948.052 C 279.317 906.992 133.16 851.277 -4.453 783.618 C -5.089 784.907 -5.724 786.194 -6.36 787.48 C -81.669 750.244 -165.753 700.258 -236.924 654.655 C -257.348 575.267 -273.325 493.204 -283.959 412.649 C -306.87 243.519 -309.334 76.392 -294.637 -84.556 C -194.996 116.505 -29.303 297.12 174.769 440.878 C 171.06 441.02 167.352 441.155 163.647 441.282 C 167.35 441.157 171.056 441.022 174.766 440.88 C 174.767 440.88 174.767 440.879 174.767 440.879 L 174.767 440.88 C 174.768 440.88 174.768 440.88 174.768 440.88 C 174.768 440.88 174.768 440.88 174.768 440.881 C 240.938 625.392 329.602 797.231 425.648 948.052 Z" fill="#F27126"/>
    <path d="M174.768 440.879C101.779 239.377 51.2104 24.9311 41.5664 -193.712C-59.666 -247.37 -154.045 -312.459 -242.045 -387.21C-266.336 -289.481 -283.544 -189.613 -294.637 -84.5564C-196.764 116.031 -31.0721 296.647 174.768 440.879Z" fill="#F59322"/>
  </g>
  <defs>
    <clipPath id="clip0">
      <rect width="1366" height="768" fill="white"/>
    </clipPath>
  </defs>
</svg>