<svg width="115" height="110" viewBox="0 0 115 110" fill="none" xmlns="http://www.w3.org/2000/svg">
<g clip-path="url(#clip0)">
<path d="M0.729943 115.45C-0.0395936 114.683 0.333104 109.294 0.453815 108.429C0.936662 104.962 1.41951 101.494 1.90235 98.027C2.88163 90.994 3.8609 83.9624 4.83866 76.9294C4.95032 76.1261 5.06198 75.3214 5.17515 74.5181C5.40752 73.1803 6.73384 72.1627 8.12051 72.2563C9.5087 72.3484 10.4533 73.5185 10.2209 74.8563C7.30118 88.0995 3.75377 101.367 1.59303 114.68C1.56436 114.859 1.53117 115.046 1.40895 115.202C1.11773 115.564 0.89743 115.616 0.729943 115.45Z" fill="#E3E5FC"/>
<path d="M33.1878 115.309C33.9392 114.52 33.4443 109.143 33.304 108.282C32.7427 104.831 32.1814 101.379 31.6201 97.9274C30.4824 90.9276 29.3431 83.9262 28.2054 76.9264C28.0757 76.1261 27.9459 75.3259 27.8146 74.5256C27.5521 73.1954 26.2031 72.2185 24.818 72.3544C23.4328 72.4888 22.5154 73.6877 22.7779 75.0164C25.9979 88.166 29.8441 101.322 32.3066 114.563C32.3398 114.742 32.3775 114.929 32.5028 115.08C32.803 115.436 33.0248 115.481 33.1878 115.309Z" fill="#E3E5FC"/>
<path d="M28.9266 78.4981H4.50516C2.25238 78.4981 0.408508 76.653 0.408508 74.3988V74.3988C0.408508 72.1445 2.25238 70.2994 4.50516 70.2994H28.9266C31.1794 70.2994 33.0233 72.1445 33.0233 74.3988V74.3988C33.0248 76.6546 31.1809 78.4981 28.9266 78.4981Z" fill="#A7ADFF"/>
<path d="M88.2111 49.6503L96.8888 30.0806C97.0261 29.7711 97.3913 29.6307 97.7006 29.7681L97.8515 29.8345C98.1608 29.9719 98.3011 30.3373 98.1638 30.6468L89.4846 50.2165C89.3473 50.526 88.9822 50.6664 88.6728 50.529L88.522 50.4626C88.2141 50.3252 88.0738 49.9598 88.2111 49.6503Z" fill="#0054A6"/>
<path d="M96.596 29.5069L89.8272 9.19737C89.72 8.87576 89.8951 8.52547 90.2165 8.41827L90.3734 8.36542C90.6948 8.25822 91.0448 8.43336 91.152 8.75497L97.9209 29.0645C98.028 29.3861 97.853 29.7364 97.5316 29.8436L97.3746 29.8964C97.0532 30.0021 96.7032 29.827 96.596 29.5069Z" fill="#0054A6"/>
<path d="M97.5708 31.9363C98.5175 31.9363 99.2849 31.1684 99.2849 30.2211C99.2849 29.2738 98.5175 28.5058 97.5708 28.5058C96.6242 28.5058 95.8568 29.2738 95.8568 30.2211C95.8568 31.1684 96.6242 31.9363 97.5708 31.9363Z" fill="#A7ADFF"/>
<path d="M88.1432 48.4514C84.9776 48.4514 82.4125 50.8491 82.4125 53.8085H93.874C93.874 50.8491 91.3074 48.4514 88.1432 48.4514Z" fill="#E3E5FC"/>
<path d="M91.5443 6.86913C89.8332 5.15692 84.3468 7.87019 79.2905 12.9298L85.4876 19.1309C90.5439 14.0713 93.2554 8.58134 91.5443 6.86913Z" fill="#F3AA02"/>
<path d="M78.7805 20.2256C78.7066 20.2256 78.6312 20.1969 78.5768 20.138C78.4682 20.0248 78.4727 19.8466 78.5859 19.7379L81.2129 17.2255C81.3261 17.1168 81.5056 17.1213 81.6127 17.2345C81.7214 17.3478 81.7169 17.5259 81.6037 17.6347L78.9767 20.1471C78.9224 20.2 78.8515 20.2256 78.7805 20.2256Z" fill="#E3E5FC"/>
<path d="M81.7455 22.8483C81.6988 22.8483 81.6505 22.8362 81.6067 22.812C81.4709 22.735 81.4226 22.5629 81.4996 22.427L83.2786 19.2562C83.354 19.1204 83.5261 19.072 83.6634 19.1475C83.7992 19.2245 83.8474 19.3967 83.7705 19.5326L81.9915 22.7033C81.9402 22.7969 81.8436 22.8483 81.7455 22.8483Z" fill="#E3E5FC"/>
<path d="M75.8895 17.2979C75.7763 17.2979 75.6692 17.23 75.6254 17.1183C75.5681 16.9733 75.6405 16.8087 75.7854 16.7514L79.1729 15.4332C79.3192 15.3774 79.4822 15.4483 79.5395 15.5948C79.5969 15.7412 79.5245 15.9043 79.3796 15.9617L75.9921 17.2798C75.9589 17.2919 75.9242 17.2979 75.8895 17.2979Z" fill="#E3E5FC"/>
<path d="M32.0109 29.1988L29.479 36.8479L22.7689 37.5349C22.7689 37.5349 27.8765 33.1849 28.5555 28.2567C29.2345 23.3284 32.0109 29.1988 32.0109 29.1988Z" fill="#D4A79A"/>
<path d="M42.7965 17.8082C42.7965 17.8082 43.6415 19.9221 40.8862 24.947C38.131 29.9719 34.7858 33.9912 33.2557 33.2257C29.0218 31.1088 28.3141 27.5153 27.5023 24.3732C26.5064 20.5215 32.5013 13.4235 32.5013 13.4235L36.5964 12.4708L42.7965 17.8082Z" fill="#EAC2AB"/>
<path d="M48.0369 17.7041C48.0806 17.6286 48.1229 17.5501 48.1636 17.47C48.9995 15.8273 49.3164 13.6847 48.9618 11.8729C48.3613 8.80177 45.2786 8.47563 42.6893 9.03127C41.5064 9.28493 40.3988 10.0595 39.1465 9.65788C38.2124 9.35892 37.7402 8.48167 37.0295 7.88527C36.2147 7.20129 35.1947 6.79966 34.1309 6.68793C31.9264 6.45691 29.8984 7.59839 28.6898 9.4027C28.1934 10.1456 27.875 11.0002 27.8267 11.8925C27.6064 11.583 27.2926 11.4818 26.9168 11.5543C23.8402 12.1537 24.0167 16.623 24.1525 18.9678C24.2657 20.9262 24.1556 23.3616 25.3476 25.0391C25.8229 25.708 27.0692 26.7725 27.8267 26.0296C28.5027 25.3668 27.9746 23.336 28.1556 22.4663C28.4091 21.2448 28.2975 15.3894 34.5232 15.8303C36.9978 16.0054 38.7421 20.2407 41.0688 20.9775C43.4362 21.7279 46.7181 19.9719 48.0369 17.7041Z" fill="#0054A6"/>
<path d="M28.7155 20.8476C28.7155 20.8476 26.9893 18.9301 27.2021 21.8789C27.4163 24.8262 28.9645 25.4211 28.9645 25.4211L28.7155 20.8476Z" fill="#EAC2AB"/>
<path d="M61.4508 92.2004L65.4449 102.078L62.4814 103.839L58.8903 93.2694C58.8903 93.2694 60.378 92.06 61.4508 92.2004Z" fill="#EAC2AB"/>
<path d="M79.1382 103.487C79.1382 103.487 76.9262 104.834 72.4508 106.122C67.9769 107.411 62.9432 108.628 61.893 108.1C60.8428 107.571 59.1483 101.595 60.6618 101.284C62.1752 100.974 63.1846 103.185 65.4767 100.558C67.4397 98.3064 69.8736 101.293 74.0155 101.374C78.1574 101.456 79.8338 101.485 79.1382 103.487Z" fill="#F3AA02"/>
<path d="M31.3439 63.8432C33.3598 64.0712 38.3995 66.4281 40.257 67.1257C44.2435 68.6235 50.2262 77.245 52.6525 80.2964C55.3278 83.6605 57.8718 84.8382 60.277 88.3456C61.9594 90.7781 65.2624 91.4062 66.9659 93.6242C68.2636 95.3138 67.6676 95.3319 65.6773 96.413C62.9477 97.8957 54.8872 105.721 53.6454 100.94C53.1822 99.1534 49.8762 95.3636 48.6721 93.8733C45.8459 90.3749 46.6532 85.0133 44.2299 81.3066C43.0499 79.5022 42.2019 77.3824 40.1453 76.262C38.4191 75.3214 36.2267 75.3093 34.1686 75.3304C31.3318 75.3576 29.7385 70.4248 26.9002 70.452C23.1597 70.4882 19.2893 74.121 16.2897 72.2427C11.2469 69.0825 18.0762 68.8107 20.8978 68.7005C26.4838 68.4846 25.7927 63.2181 31.3439 63.8432Z" fill="#0054A6"/>
<path d="M50.1764 98.5208L54.937 108.045L51.9192 109.966L47.5419 99.7332C47.5419 99.7332 49.0387 98.4468 50.1764 98.5208Z" fill="#EAC2AB"/>
<path d="M68.6634 111.036C68.6634 111.036 66.2341 112.182 61.4343 113.084C56.6345 113.985 51.2522 114.77 50.19 114.162C49.1277 113.553 47.812 107.512 49.4265 107.331C51.0395 107.15 51.9297 109.416 54.5401 107.012C56.7778 104.953 59.1015 108.103 63.4471 108.527C67.7913 108.95 69.5506 109.117 68.6634 111.036Z" fill="#FDC510"/>
<path d="M26.9002 62.8437C28.9161 63.132 30.7766 63.9715 32.634 64.8578C36.6205 66.7603 39.9537 71.9649 42.38 75.8392C45.0553 80.1137 47.5993 84.4833 50.0044 88.9375C50.9173 90.6286 51.2915 92.522 52.1395 94.2251C53.5428 97.0426 60.7961 100.894 56.0747 104.082C53.0449 106.126 48.2556 105.142 44.8395 105.13C44.6614 105.13 44.4698 105.123 44.331 105.013C44.1665 104.882 44.1318 104.649 44.1092 104.44C43.6354 99.9899 43.1827 96.268 41.1683 92.2381C38.3422 87.7945 36.3806 84.7053 33.9573 79.999C32.7774 77.707 32.8573 75.8226 30.8022 74.4003C29.076 73.2045 27.2956 73.5623 25.2389 73.588C22.4022 73.6227 19.9668 73.5533 17.1301 73.588C13.3896 73.6333 10.9467 73.5125 8.92475 70.2542C5.05141 64.0108 7.80665 64.124 10.6268 63.9851C16.2112 63.7073 21.349 62.0479 26.9002 62.8437Z" fill="#21409A"/>
<path d="M31.4404 41.2689C31.4404 41.2689 33.8064 50.3191 34.7208 50.5199C35.4873 50.6875 36.4243 50.523 37.1969 50.4882C38.7827 50.4158 40.3686 50.3131 41.9514 50.2059C44.6931 50.0187 47.5162 49.9522 50.2322 49.5068C51.892 49.235 54.9355 48.8289 56.1924 47.6104C57.8989 45.9586 60.9409 49.7544 61.8024 50.7645C61.9277 50.911 62.0469 51.1435 61.905 51.2719C61.8402 51.3307 61.7451 51.3368 61.6576 51.3323C61.042 51.3066 60.4988 50.9442 59.9918 50.5969C60.452 51.1179 60.8337 51.7082 61.1189 52.3424C60.5576 52.128 60.0717 51.752 59.518 51.521C57.2893 50.5939 55.4832 53.8387 52.986 52.6836C51.3111 51.909 49.4219 52.439 47.6807 52.6323C46.1129 52.8059 44.5437 52.9675 42.9729 53.12C40.0366 53.4068 36.966 53.9051 34.0086 53.7904C33.8275 53.7828 33.6223 53.8039 33.4457 53.7451C32.5163 53.431 30.7448 49.4449 29.4291 45.9691C28.5992 43.7768 27.5233 41.4183 28.2944 37.9864C29.0036 34.8398 32.3065 36.2606 31.4404 41.2689Z" fill="#EAC2AB"/>
<path d="M27.3727 48.1053C27.8053 46.2947 28.3604 44.5531 28.9972 42.94C29.9955 40.4114 31.7849 36.9721 30.2572 34.2664C30.0424 33.8854 29.8064 33.5014 29.448 33.2161C25.4578 30.0401 19.2669 36.0973 16.6864 39.2686C13.4344 43.2645 13.3194 44.97 11.9415 49.6666C10.4108 54.8821 9.03736 60.3437 6.71859 65.3083C6.46902 65.8444 6.26331 66.5765 6.79573 66.9355C7.03774 67.0985 7.35689 67.1173 7.65487 67.1173C9.72558 67.1142 11.7101 66.5248 13.6598 65.9573C16.7484 65.0591 16.6123 64.7063 19.8447 65.2911C21.1137 65.5199 22.3192 65.128 23.6049 65.1171C23.9225 65.1139 25.184 64.9619 25.4533 64.8317C27.5557 63.8175 24.9919 63.2234 24.8876 62.9569C22.953 57.9954 26.0976 53.443 27.3727 48.1053Z" fill="white"/>
<path d="M30.5277 62.6894H3.24147C2.02736 62.6894 1.034 61.7548 1.034 60.6125V57.6845C1.034 56.5423 2.02736 55.6077 3.24147 55.6077H30.5277C31.7418 55.6077 32.7351 56.5423 32.7351 57.6845V60.6125C32.7344 61.7548 31.741 62.6894 30.5277 62.6894Z" fill="#E3E5FC"/>
<path d="M32.3292 44.2449C32.3292 44.2449 32.7079 33.2937 27.8025 34.0984C22.8971 34.9032 24.9296 47.2465 24.9296 47.2465L32.9433 45.8197L32.3292 44.2449Z" fill="#E5E5E5"/>
<path d="M42.1627 115.424C41.4248 114.388 42.048 106.76 42.2094 105.531C42.8552 100.609 43.5011 95.6852 44.1469 90.763C45.4566 80.7781 46.7663 70.7932 48.076 60.8083C48.2254 59.6669 48.3748 58.5254 48.5257 57.3839C48.8214 55.483 50.2021 53.9655 51.5948 54.0123C52.9875 54.0592 53.8838 55.6521 53.588 57.553C50.0376 76.4206 45.8564 95.3621 43.0665 114.283C43.0288 114.538 42.9865 114.805 42.8568 115.031C42.5489 115.563 42.3241 115.649 42.1627 115.424Z" fill="#E3E5FC"/>
<path d="M91.7631 115.424C92.5009 114.388 91.8777 106.76 91.7163 105.531C91.0705 100.609 90.4247 95.6852 89.7789 90.763C88.4691 80.7781 87.1594 70.7932 85.8497 60.8083C85.7003 59.6669 85.5509 58.5254 85.4 57.3839C85.1043 55.483 83.7237 53.9655 82.3309 54.0123C80.9382 54.0592 80.0419 55.6521 80.3377 57.553C83.8881 76.4206 88.0693 95.3621 90.8592 114.283C90.897 114.538 90.9392 114.805 91.069 115.031C91.3783 115.563 91.6031 115.649 91.7631 115.424Z" fill="#E3E5FC"/>
<path d="M113.306 56.9355H31.2142C30.3541 56.9355 29.6509 56.2319 29.6509 55.3712V55.3712C29.6509 54.5106 30.3541 53.807 31.2142 53.807H113.306C114.166 53.807 114.869 54.5106 114.869 55.3712V55.3712C114.869 56.2319 114.166 56.9355 113.306 56.9355Z" fill="#A7ADFF"/>
<path d="M99.2941 48.5768C99.8403 48.2401 100.101 47.5017 99.8871 46.8963C99.537 45.9058 98.6332 46.2395 97.9889 45.7201C97.2314 45.1085 98.1473 44.1452 98.0975 43.422C98.0417 42.6263 97.3265 41.8593 97.1122 41.0907C96.6188 39.3242 98.6241 40.6423 99.1975 40.437C99.4374 40.3509 99.5944 40.1093 99.6487 39.8617C99.789 39.2275 99.5219 38.7142 99.869 38.1132C100.204 37.5334 100.7 37.2707 100.557 36.4841C100.476 36.0371 100.201 35.6295 100.208 35.1765C100.21 35.0467 100.248 34.9002 100.361 34.8368C100.447 34.7885 100.554 34.8021 100.648 34.8338C100.957 34.9425 101.159 35.2309 101.408 35.4438C101.657 35.6567 102.057 35.7895 102.295 35.5645C102.454 35.4151 102.47 35.1735 102.502 34.9576C102.561 34.568 102.834 34.2978 103.172 34.5227C103.542 34.7673 103.4 35.7337 103.344 36.0809C103.255 36.6305 103.122 37.2013 103.285 37.7327C103.555 38.613 104.292 37.6271 104.613 37.3356C104.875 37.0971 105.316 36.9536 105.57 37.2028C106.072 37.6995 105.263 38.3624 105.158 38.8335C105.106 39.0569 105.173 39.3257 105.372 39.4404C105.954 39.7786 106.446 39.1762 106.534 40.0746C106.594 40.6891 106.037 41.2765 106.383 41.891C106.685 42.4285 107.688 42.6565 107.291 43.4114C107.047 43.875 105.998 43.8538 106.054 44.5121C106.09 44.941 106.736 45.1372 106.736 45.5676C106.736 45.8922 106.359 46.0839 106.034 46.1005C105.71 46.1172 105.369 46.0417 105.07 46.1685C104.731 46.3119 104.534 46.7287 104.64 47.082C104.731 47.3885 105.017 47.6693 104.927 47.9758C104.818 48.3457 104.307 48.3593 103.926 48.3005C102.375 48.0558 100.711 47.8943 99.2941 48.5768Z" fill="#FDC510"/>
<path d="M102.229 48.6069C102.072 48.6069 101.947 48.4801 101.947 48.3246V41.3867C101.947 41.2311 102.073 41.1043 102.229 41.1043C102.384 41.1043 102.511 41.2311 102.511 41.3867V48.3246C102.511 48.4801 102.386 48.6069 102.229 48.6069Z" fill="white"/>
<path d="M102.229 45.9058C102.166 45.9058 102.104 45.8846 102.051 45.8424C101.929 45.7442 101.911 45.566 102.009 45.4437L103.827 43.2001C103.926 43.0778 104.104 43.0611 104.225 43.1578C104.346 43.2559 104.365 43.4341 104.266 43.5564L102.448 45.8001C102.392 45.871 102.312 45.9058 102.229 45.9058Z" fill="white"/>
<path d="M102.229 44.0124C102.164 44.0124 102.099 43.9912 102.046 43.9459L99.8795 42.1205C99.7603 42.0193 99.7452 41.8411 99.8448 41.7219C99.9459 41.6026 100.124 41.5875 100.243 41.6871L102.41 43.5126C102.529 43.6138 102.544 43.7919 102.445 43.9112C102.389 43.9776 102.309 44.0124 102.229 44.0124Z" fill="white"/>
<path d="M98.9907 47.6044C99.2759 49.5008 99.5324 51.4848 100.012 53.3132C100.051 53.4657 100.1 53.6258 100.195 53.7224C100.309 53.8387 100.465 53.8402 100.608 53.8372C101.435 53.8175 102.265 53.8719 103.093 53.8674C103.875 53.8628 104.522 53.9263 104.604 52.6262C104.632 52.1763 104.703 47.6044 105.118 47.6044C105.117 47.6044 98.9907 47.6044 98.9907 47.6044Z" fill="white"/>
<path d="M104.559 48.7383H99.5505C98.9274 48.7383 98.4174 48.228 98.4174 47.6044V47.6044C98.4174 46.9808 98.9274 46.4705 99.5505 46.4705H104.559C105.182 46.4705 105.692 46.9808 105.692 47.6044V47.6044C105.692 48.228 105.182 48.7383 104.559 48.7383Z" fill="#E5E5E5"/>
<path d="M69.3364 53.6364H44.0216C43.6836 53.6364 43.406 53.3601 43.406 53.0204V53.0204C43.406 52.6821 43.6821 52.4043 44.0216 52.4043H69.3364C69.6744 52.4043 69.952 52.6806 69.952 53.0204V53.0204C69.9505 53.3601 69.6744 53.6364 69.3364 53.6364Z" fill="#0054A6"/>
<path d="M68.7041 52.7697L81.3622 30.8326C81.5312 30.5396 81.91 30.4385 82.2027 30.6076V30.6076C82.4954 30.7767 82.5965 31.1557 82.4275 31.4486L69.7694 53.3857C69.6004 53.6786 69.2217 53.7798 68.929 53.6107V53.6107C68.6362 53.4416 68.5351 53.0626 68.7041 52.7697Z" fill="#0054A6"/>
<path d="M64.2693 23.8398C64.2693 24.3357 64.0962 24.7557 63.7501 25.1001C63.404 25.4444 62.9818 25.6165 62.4834 25.6165C61.9851 25.6165 61.5628 25.4444 61.2167 25.1001C60.8706 24.7557 60.6976 24.3357 60.6976 23.8398C60.6976 23.344 60.8706 22.9239 61.2167 22.5796C61.5628 22.2353 61.9851 22.0631 62.4834 22.0631C62.9818 22.0631 63.404 22.2353 63.7501 22.5796C64.0962 22.9239 64.2693 23.344 64.2693 23.8398ZM61.0298 20.7203V20.1212C61.0298 19.6942 61.0921 19.3292 61.2167 19.0262C61.3413 18.7232 61.5074 18.4615 61.7151 18.2412C61.9228 18.0208 62.1512 17.8349 62.4004 17.6834C62.6634 17.5319 62.9264 17.3804 63.1895 17.2289C63.6878 16.9534 64.1239 16.6366 64.4977 16.2785C64.8715 15.9067 65.0584 15.4246 65.0584 14.8324C65.0584 14.5707 65.0169 14.3297 64.9338 14.1093C64.8507 13.8752 64.7123 13.6755 64.5185 13.5102C64.3385 13.3311 64.0962 13.1934 63.7917 13.097C63.4871 13.0006 63.1133 12.9524 62.6703 12.9524C62.1166 12.9524 61.6597 13.0419 61.2998 13.221C60.9398 13.3862 60.6491 13.5791 60.4276 13.7994C60.2061 14.006 60.0469 14.2057 59.95 14.3985C59.8669 14.5914 59.8185 14.7153 59.8047 14.7704C59.2371 14.6878 58.8287 14.5294 58.5795 14.2952C58.3303 14.0473 58.2057 13.7374 58.2057 13.3656C58.2057 13.1177 58.2541 12.8973 58.351 12.7045C58.448 12.4979 58.5726 12.3051 58.7248 12.126C58.7802 12.0572 58.8979 11.947 59.0779 11.7955C59.2578 11.644 59.5139 11.4925 59.8462 11.341C60.1784 11.1757 60.6007 11.0311 61.1129 10.9071C61.6251 10.7832 62.2412 10.7212 62.961 10.7212C63.8332 10.7212 64.5877 10.8245 65.2245 11.0311C65.8613 11.2377 66.3874 11.52 66.8027 11.8781C67.218 12.2362 67.5226 12.6494 67.7164 13.1177C67.9241 13.5859 68.0279 14.0818 68.0279 14.6051C68.0279 15.1423 67.9587 15.6106 67.8202 16.01C67.6956 16.4094 67.5295 16.7606 67.3219 17.0636C67.1142 17.3666 66.8789 17.6352 66.6158 17.8693C66.3528 18.0897 66.0898 18.2963 65.8267 18.4891C65.5083 18.7232 65.2314 18.916 64.9961 19.0675C64.7607 19.219 64.5669 19.3705 64.4146 19.522C64.2624 19.6735 64.1447 19.8388 64.0616 20.0179C63.9786 20.1831 63.937 20.3897 63.937 20.6376V20.7203H61.0298Z" fill="#FEF6F4"/>
<path d="M75.1115 36.4758H49.6685C48.2426 36.4758 47.0777 35.3087 47.0777 33.8833V32.9064C47.0777 31.4796 48.2441 30.314 49.6685 30.314H75.1115C76.5374 30.314 77.7022 31.4811 77.7022 32.9064V33.8833C77.7022 35.3102 76.5359 36.4758 75.1115 36.4758Z" fill="#A7ADFF"/>
<path d="M49.5734 34.054C49.9634 34.054 50.2795 33.7376 50.2795 33.3473C50.2795 32.9571 49.9634 32.6407 49.5734 32.6407C49.1834 32.6407 48.8672 32.9571 48.8672 33.3473C48.8672 33.7376 49.1834 34.054 49.5734 34.054Z" fill="white"/>
<path d="M75.0164 34.054C75.4064 34.054 75.7226 33.7376 75.7226 33.3473C75.7226 32.9571 75.4064 32.6407 75.0164 32.6407C74.6264 32.6407 74.3102 32.9571 74.3102 33.3473C74.3102 33.7376 74.6264 34.054 75.0164 34.054Z" fill="white"/>
<path d="M56.9475 33.0954C56.9902 33.0776 57.0275 33.0633 57.0595 33.0526C57.0915 33.042 57.127 33.0366 57.1661 33.0366C57.2266 33.0366 57.2834 33.0615 57.3368 33.1114C57.3936 33.1612 57.4221 33.2573 57.4221 33.3997V33.4211L56.5316 33.6988L57.1288 34.4837L56.7342 34.7561L56.1744 33.9177L55.6145 34.7561L55.2146 34.4837L55.8065 33.6988L54.916 33.4211C54.916 33.3428 54.9231 33.2787 54.9373 33.2289C54.9551 33.179 54.9764 33.1399 55.0013 33.1114C55.0262 33.0829 55.0529 33.0633 55.0813 33.0526C55.1133 33.042 55.1453 33.0366 55.1773 33.0366C55.2164 33.0366 55.2502 33.042 55.2786 33.0526C55.3106 33.0633 55.3479 33.0776 55.3906 33.0954L55.9558 33.341L55.9131 32.5934V32.5721C55.9131 32.5009 55.938 32.4457 55.9878 32.4065C56.0375 32.3674 56.1033 32.3478 56.185 32.3478C56.2384 32.3478 56.2899 32.3549 56.3397 32.3691C56.3894 32.3834 56.4179 32.3941 56.425 32.4012L56.3823 33.341L56.9475 33.0954Z" fill="#FEFEFE"/>
<path d="M60.0093 33.0954C60.052 33.0776 60.0893 33.0633 60.1213 33.0526C60.1533 33.042 60.1888 33.0366 60.2279 33.0366C60.2883 33.0366 60.3452 33.0615 60.3985 33.1114C60.4554 33.1612 60.4838 33.2573 60.4838 33.3997V33.4211L59.5934 33.6988L60.1906 34.4837L59.796 34.7561L59.2361 33.9177L58.6763 34.7561L58.2764 34.4837L58.8682 33.6988L57.9778 33.4211C57.9778 33.3428 57.9849 33.2787 57.9991 33.2289C58.0169 33.179 58.0382 33.1399 58.0631 33.1114C58.088 33.0829 58.1146 33.0633 58.1431 33.0526C58.1751 33.042 58.2071 33.0366 58.2391 33.0366C58.2782 33.0366 58.3119 33.042 58.3404 33.0526C58.3724 33.0633 58.4097 33.0776 58.4523 33.0954L59.0175 33.341L58.9749 32.5934V32.5721C58.9749 32.5009 58.9998 32.4457 59.0495 32.4065C59.0993 32.3674 59.1651 32.3478 59.2468 32.3478C59.3001 32.3478 59.3517 32.3549 59.4014 32.3691C59.4512 32.3834 59.4796 32.3941 59.4868 32.4012L59.4441 33.341L60.0093 33.0954Z" fill="#FEFEFE"/>
<path d="M63.0711 33.0954C63.1137 33.0776 63.151 33.0633 63.183 33.0526C63.215 33.042 63.2506 33.0366 63.2897 33.0366C63.3501 33.0366 63.407 33.0615 63.4603 33.1114C63.5172 33.1612 63.5456 33.2573 63.5456 33.3997V33.4211L62.6552 33.6988L63.2524 34.4837L62.8578 34.7561L62.2979 33.9177L61.738 34.7561L61.3381 34.4837L61.93 33.6988L61.0395 33.4211C61.0395 33.3428 61.0467 33.2787 61.0609 33.2289C61.0787 33.179 61.1 33.1399 61.1249 33.1114C61.1497 33.0829 61.1764 33.0633 61.2048 33.0526C61.2368 33.042 61.2688 33.0366 61.3008 33.0366C61.3399 33.0366 61.3737 33.042 61.4021 33.0526C61.4341 33.0633 61.4714 33.0776 61.5141 33.0954L62.0793 33.341L62.0366 32.5934V32.5721C62.0366 32.5009 62.0615 32.4457 62.1113 32.4065C62.1611 32.3674 62.2268 32.3478 62.3086 32.3478C62.3619 32.3478 62.4134 32.3549 62.4632 32.3691C62.513 32.3834 62.5414 32.3941 62.5485 32.4012L62.5059 33.341L63.0711 33.0954Z" fill="#FEFEFE"/>
<path d="M66.1328 33.0954C66.1755 33.0776 66.2128 33.0633 66.2448 33.0526C66.2768 33.042 66.3123 33.0366 66.3514 33.0366C66.4119 33.0366 66.4688 33.0615 66.5221 33.1114C66.5789 33.1612 66.6074 33.2573 66.6074 33.3997V33.4211L65.7169 33.6988L66.3141 34.4837L65.9195 34.7561L65.3597 33.9177L64.7998 34.7561L64.3999 34.4837L64.9918 33.6988L64.1013 33.4211C64.1013 33.3428 64.1084 33.2787 64.1226 33.2289C64.1404 33.179 64.1617 33.1399 64.1866 33.1114C64.2115 33.0829 64.2382 33.0633 64.2666 33.0526C64.2986 33.042 64.3306 33.0366 64.3626 33.0366C64.4017 33.0366 64.4355 33.042 64.4639 33.0526C64.4959 33.0633 64.5332 33.0776 64.5759 33.0954L65.1411 33.341L65.0984 32.5934V32.5721C65.0984 32.5009 65.1233 32.4457 65.1731 32.4065C65.2228 32.3674 65.2886 32.3478 65.3703 32.3478C65.4237 32.3478 65.4752 32.3549 65.525 32.3691C65.5747 32.3834 65.6032 32.3941 65.6103 32.4012L65.5676 33.341L66.1328 33.0954Z" fill="#FEFEFE"/>
<path d="M69.1946 33.0954C69.2373 33.0776 69.2746 33.0633 69.3066 33.0526C69.3386 33.042 69.3741 33.0366 69.4132 33.0366C69.4736 33.0366 69.5305 33.0615 69.5838 33.1114C69.6407 33.1612 69.6692 33.2573 69.6692 33.3997V33.4211L68.7787 33.6988L69.3759 34.4837L68.9813 34.7561L68.4214 33.9177L67.8616 34.7561L67.4617 34.4837L68.0535 33.6988L67.1631 33.4211C67.1631 33.3428 67.1702 33.2787 67.1844 33.2289C67.2022 33.179 67.2235 33.1399 67.2484 33.1114C67.2733 33.0829 67.2999 33.0633 67.3284 33.0526C67.3604 33.042 67.3924 33.0366 67.4244 33.0366C67.4635 33.0366 67.4972 33.042 67.5257 33.0526C67.5577 33.0633 67.595 33.0776 67.6376 33.0954L68.2028 33.341L68.1602 32.5934V32.5721C68.1602 32.5009 68.1851 32.4457 68.2348 32.4065C68.2846 32.3674 68.3504 32.3478 68.4321 32.3478C68.4854 32.3478 68.537 32.3549 68.5867 32.3691C68.6365 32.3834 68.6649 32.3941 68.6721 32.4012L68.6294 33.341L69.1946 33.0954Z" fill="#FEFEFE"/>
</g>
<defs>
<clipPath id="clip0">
<rect width="115" height="110" fill="white"/>
</clipPath>
</defs>
</svg>
