<svg width="618" height="594" viewBox="0 0 618 594" fill="none" xmlns="http://www.w3.org/2000/svg">
<path d="M333.486 278.364C348.926 276.79 363.481 272.316 376.954 264.153C384.871 259.383 393.869 253.138 400.999 247.287C413.194 237.207 433.256 216.899 449.974 211.44C451.597 210.9 453.023 212.621 452.236 214.096C449.434 219.21 444.516 225.7 439.058 225.7C425.241 225.7 419.635 243.845 408.227 253.384C388.657 269.709 365.005 285.395 338.649 287.461C333.289 287.952 333.486 278.364 333.486 278.364Z" fill="#D4A79A"/>
<path d="M330.584 257.416L330.388 279.79L313.227 287.313C313.227 287.313 323.061 271.48 320.652 257.859C318.242 244.238 330.584 257.416 330.584 257.416Z" fill="#D4A79A"/>
<path d="M344.156 211.047C344.156 211.047 348.188 215.915 345.139 231.552C342.091 247.189 336.682 260.613 331.961 259.924C318.98 257.908 314.063 249.008 309.244 241.435C303.343 232.093 313.177 208.244 313.177 208.244L323.209 202.245L344.156 211.047Z" fill="#EAC2AB"/>
<path d="M357.727 206.326C360.432 197.131 357.678 186.51 349.614 181.052C348.68 180.413 347.647 179.872 346.565 179.872C341.55 179.921 343.959 190.788 335.649 190.1C330.24 189.657 325.962 185.772 320.602 185.281C313.866 184.592 308.604 188.182 304.622 193.296C303.441 194.82 295.131 207.015 299.409 207.851C286.034 205.245 298.77 237.452 301.77 241.78C304.13 245.222 308.604 246.844 312.391 245.713C311.063 242.566 309.785 239.321 309.391 235.879C309.047 232.437 303.736 217.046 320.602 212.916C332.551 209.965 344.795 223.291 355.269 211.244C356.351 209.916 357.187 208.244 357.727 206.326Z" fill="#0065B3"/>
<path d="M308.899 224.569C308.899 224.569 303.933 219.406 304.818 227.569C305.703 235.731 310.08 237.207 310.08 237.207L308.899 224.569Z" fill="#EAC2AB"/>
<path d="M284.313 537.993L274.036 565.037L264.645 562.53L277.085 534.944C277.036 534.944 282.347 535.583 284.313 537.993Z" fill="#D4A79A"/>
<path d="M298.082 590.263C297.737 590.804 294.443 590.607 293.951 590.607C288.837 590.705 280.921 591.05 276.544 588.099C272.266 585.198 269.463 580.232 265.677 576.74C263.022 574.282 259.58 572.807 256.433 571.086C252.942 569.168 260.022 553.285 264.251 555.842C267.693 557.908 265.972 563.71 274.725 562.923C282.199 562.284 277.478 572.954 286.133 579.347C293.804 584.952 301.72 584.116 298.082 590.263Z" fill="#F3AA02"/>
<path d="M312.686 438.075C307.424 464.087 297.639 487.985 283.674 510.211C276.839 521.078 274.43 524.274 267.398 534.944C257.367 550.187 284.461 559.53 292.279 561.841C297.393 563.366 305.064 563.464 304.867 559.038C304.818 557.711 303.982 556.482 303.294 555.252C297 543.992 303.343 532.043 308.457 521.471C323.7 489.755 326.405 482.232 338.698 449.335C343.369 436.796 345.729 394.312 346.86 380.74C347.549 372.43 340.566 338.206 326.208 347.795C317.259 353.794 321.242 374.84 321.881 383.346C322.274 389.247 323.159 395.639 322.078 401.638C319.717 413.931 315.144 425.782 312.686 438.075Z" fill="#0065B3"/>
<path d="M316.472 548.712L322.864 577.822L313.374 580.969L308.506 550.188C308.506 550.188 313.423 547.729 316.472 548.712Z" fill="#EAC2AB"/>
<path d="M361.809 589.279C361.809 589.279 354.679 591.689 341.058 592.722C327.437 593.754 312.194 594.246 309.44 592.23C306.687 590.214 304.917 573.003 309.44 573.003C313.964 573.003 315.734 579.593 323.749 573.692C330.634 568.676 336.092 578.167 348.041 580.674C360.039 583.182 364.857 584.215 361.809 589.279Z" fill="#FDC510"/>
<path d="M338.403 560.071C337.96 558.989 336.731 558.203 335.698 557.367C326.159 549.794 328.519 538.189 330.044 528.06C333.682 504.064 326.011 479.773 328.323 455.826C331.666 421.651 329.257 408.867 334.617 386.002C336.583 377.691 339.239 364.857 326.405 367.316C320.307 368.447 314.308 368.25 308.26 367.169C305.064 366.628 308.309 365.595 305.064 366.628C293.951 370.168 294.836 380.691 295.82 390.919C297.246 406.064 298.131 426.913 298.868 442.304C299.901 464.136 303.54 486.018 300.934 507.654C299.655 518.275 298.18 528.847 296.754 539.468C295.918 545.664 290.755 559.186 294.246 564.792C299.016 572.462 320.209 565.972 327.29 565.775C332.65 565.726 339.976 563.71 338.403 560.071Z" fill="#004894"/>
<path d="M341.992 319.914C338.796 306.883 342.287 284.904 333.092 275.217C332.158 274.233 331.224 272.955 329.896 272.66C306.048 267.497 304.72 279.298 299.753 287.51C294.787 295.771 301.524 302.31 299.114 311.555C296.361 322.029 296.901 332.994 296.705 343.812C296.606 350.401 297.492 353.646 297.098 360.235C296.852 364.857 297.147 368.25 296.115 372.774C295.426 375.774 290.46 386.198 291.591 389.247C292.476 391.656 296.656 390.771 298.672 390.82C306.539 391.066 309.047 391.066 316.029 387.575C322.422 384.428 347.057 391.558 354.482 390.919C358.121 390.624 349.417 372.873 347.795 366.234C343.861 350.45 345.779 341.894 344.156 330.781C343.566 327.192 342.877 323.553 341.992 319.914Z" fill="#F04E23"/>
<path d="M329.896 272.709C329.896 272.709 336.19 278.413 352.024 271.234L357.236 287.559C357.236 287.559 341.943 294.886 334.666 289.329C328.421 284.559 330.044 273.004 329.896 272.709Z" fill="#F04E23"/>
<path d="M301.13 278.78C282.931 258.379 243.133 215.377 226.773 193.555C225.9 192.409 225.026 191.217 224.843 189.796C224.613 188.008 225.578 186.357 226.313 184.707C228.105 180.902 229.071 176.684 229.116 172.512C229.116 170.449 228.887 168.249 227.646 166.507C226.405 164.811 223.969 163.756 222.039 164.673C222.407 171.412 221.166 178.243 218.501 184.478C216.754 181.727 215.054 178.977 213.307 176.226C211.561 185.395 219.052 193.418 223.096 201.899C225.164 206.208 251.405 236.236 254.163 240.133C269.282 261.955 273.189 270.161 288.216 283.777C292.215 287.399 296.351 291.112 301.452 292.992C306.553 294.917 312.941 294.596 316.801 290.837L301.13 278.78Z" fill="#EAC2AB"/>
<path d="M286.845 283.796C286.845 283.796 320.996 307.76 318.683 294.923C316.393 282.194 295.239 264.817 295.239 264.817L282.22 281.487L286.845 283.796Z" fill="#FF7101"/>
<path d="M319.57 56.5481C319.619 59.4 319.472 62.3504 318.193 64.8582C317.161 66.9234 315.341 68.5461 313.325 69.6279C311.26 70.7588 308.752 71.3981 306.49 70.5621C306.343 67.956 306.785 65.3499 307.867 62.9404C306.687 64.0222 305.556 65.104 304.376 66.1858C302.999 67.4643 301.425 68.8411 299.508 68.8903C297.59 68.8903 295.771 66.6284 296.902 65.104C297.442 64.3664 298.623 63.9239 298.672 62.9896C298.77 61.8587 297.246 61.3178 296.164 61.5145C295.082 61.7111 293.902 62.3012 292.869 61.9078C291.345 61.3178 291.296 58.9575 292.378 57.7774C293.459 56.5481 295.181 56.1547 296.803 55.8597C300.098 55.1712 303.982 54.9746 307.129 53.7944C308.9 53.106 311.162 50.8441 312.784 50.4999C317.308 49.5164 319.668 50.9916 319.57 56.5481Z" fill="#F44E4E"/>
<path d="M235.092 42.3864C234.502 42.8289 233.814 43.1731 233.125 43.124C231.896 43.0256 231.06 41.7963 230.962 40.6162C230.863 39.436 231.306 38.2559 231.798 37.125C229.487 38.1576 226.635 38.6985 224.471 37.2725C222.357 35.8956 222.012 32.0602 224.323 31.0276C222.455 30.8801 220.488 30.6834 219.062 29.5033C217.636 28.3231 217.193 25.7662 218.718 24.7336C219.455 24.1927 220.488 24.1927 221.422 24.1927C225.651 24.1927 229.831 24.1927 234.06 24.1435C235.141 24.1435 236.272 24.1435 237.256 24.586C244.73 27.8806 239.911 38.7476 235.092 42.3864Z" fill="#FDC510"/>
<path d="M566.758 221.373C566.168 221.816 565.48 222.16 564.792 222.111C563.562 222.012 562.726 220.783 562.628 219.603C562.53 218.423 562.972 217.243 563.464 216.112C561.153 217.144 558.301 217.685 556.137 216.259C554.023 214.882 553.679 211.047 555.99 210.014C554.121 209.867 552.154 209.67 550.728 208.49C549.302 207.31 548.86 204.753 550.384 203.72C551.122 203.179 552.154 203.179 553.089 203.179C557.317 203.179 561.497 203.179 565.726 203.13C566.808 203.13 567.939 203.13 568.922 203.573C576.347 206.916 571.577 217.784 566.758 221.373Z" fill="#E3E5FC"/>
<path d="M133.06 155.925C132.519 156.023 131.929 155.974 131.486 155.679C130.7 155.187 130.601 154.056 130.945 153.27C131.29 152.434 132.027 151.844 132.716 151.254C130.798 151.106 128.782 150.418 127.848 148.746C126.962 147.074 128.093 144.419 130.011 144.615C128.831 143.878 127.602 143.042 127.11 141.763C126.618 140.485 127.208 138.666 128.585 138.518C129.274 138.42 129.962 138.764 130.552 139.108C133.306 140.632 136.059 142.108 138.862 143.632C139.6 144.025 140.337 144.419 140.829 145.058C144.566 149.877 137.535 155.286 133.06 155.925Z" fill="#FDC510"/>
<path d="M234.06 113.686C235.436 114.67 247.975 98.1477 251.27 108.228C254.22 117.227 238.338 116.833 234.06 113.686Z" fill="#FDC510"/>
<path d="M184.789 85.2155C180.413 84.5271 176.282 82.6585 172.447 80.4458C177.167 80.4949 181.79 79.364 186.461 78.8723C189.215 78.5772 198.901 77.6429 196.935 82.9536C195.754 85.9531 187.198 85.5597 184.789 85.2155Z" fill="#E3E5FC"/>
<path d="M349.417 141.616C342.828 141.862 336.19 139.305 331.47 134.683C333.486 136.65 344.402 135.863 347.205 136.01C351.139 136.207 357.629 134.929 360.58 137.83C358.268 140.534 353.105 141.468 349.417 141.616Z" fill="#E3E5FC"/>
<path d="M340.124 7.03167C333.535 7.27753 326.897 4.72057 322.176 0.0983887C324.192 2.06528 335.108 1.27852 337.911 1.42604C341.845 1.62273 348.336 0.34425 351.286 3.24541C348.975 5.99905 343.812 6.93332 340.124 7.03167Z" fill="#E3E5FC"/>
<path d="M579.592 91.0178C576.741 93.5255 573.889 96.0825 570.987 98.5903C569.561 99.8196 568.135 101.098 566.414 101.836C564.693 102.573 562.579 102.672 561.005 101.59C560.366 101.147 559.825 100.459 559.973 99.7212C560.071 99.1803 560.514 98.7378 560.907 98.3936C565.628 94.1156 571.381 91.0178 577.576 89.4443" fill="#FDC510"/>
<path d="M513.702 211.588C510.85 214.096 507.998 216.653 505.097 219.16C503.671 220.39 502.245 221.668 500.524 222.406C498.803 223.143 496.688 223.242 495.115 222.16C494.475 221.717 493.935 221.029 494.082 220.291C494.18 219.75 494.623 219.308 495.016 218.964C499.737 214.686 505.49 211.588 511.686 210.014" fill="#FDC510"/>
<path d="M616.177 106.015C617.357 106.31 616.668 108.13 615.685 108.916C611.505 112.408 605.801 115.358 600.884 113.047C600.245 112.752 599.556 112.309 599.311 111.621C598.77 110.146 600.343 108.769 601.769 108.08C605.9 106.064 610.473 104.983 615.095 104.983" fill="#F44E4E"/>
<path d="M554.613 51.6308C553.974 51.5324 553.384 51.0899 552.892 50.6473C549.401 47.6478 546.352 44.1074 543.943 40.2228C546.745 41.1571 562.481 43.6157 563.513 45.7301C565.234 49.1721 557.76 52.2208 554.613 51.6308Z" fill="#E3E5FC"/>
<path d="M46.0251 162.858C43.5665 160.941 41.2063 157.646 42.7798 154.941C53.7943 157.744 72.8731 160.35 81.5766 167.726C73.0206 175.594 53.7943 169.054 46.0251 162.858Z" fill="#F44E4E"/>
<path d="M53.4009 202.835C46.8611 202.049 41.1079 196.836 39.6328 190.395C43.6157 191.968 47.8445 192.952 52.1225 193.247C55.6137 193.493 65.989 191.722 65.7431 197.623C65.4973 202.245 56.6463 203.229 53.4009 202.835Z" fill="#FDC510"/>
<path d="M1.17994 169.939C0.835731 169.644 0.540696 169.349 0.442351 168.906C0.147315 167.53 2.31091 167.284 3.63856 167.726C6.4414 168.661 21.144 172.053 17.161 176.233C13.3255 180.216 4.03194 172.447 1.17994 169.939Z" fill="#FDC510"/>
</svg>
