<?xml version="1.0" encoding="utf-8"?>
<svg width="45px" height="45" viewBox="0 0 45 45" fill="none" xmlns="http://www.w3.org/2000/svg">
  <path d="M 22.202 31.858 C 26.489 30.251 30.666 28.051 34.328 25.15 C 31.044 23.892 27.945 22.163 25.136 20.079 C 24.353 24.15 23.351 28.157 22.202 31.858 Z" fill="#EE3123"/>
  <path d="M 36.026 16.451 C 34.178 14.499 32.739 12.082 31.726 9.46 C 29.928 9.268 28.272 8.956 26.705 8.503 C 26.423 12.284 25.88 16.211 25.136 20.079 C 28.79 19.577 32.47 18.388 36.026 16.451 Z" fill="#F7931D"/>
  <path d="M 25.136 20.079 C 27.945 22.163 31.044 23.892 34.328 25.151 C 36.407 23.504 38.319 21.632 39.992 19.512 C 38.51 18.718 37.189 17.677 36.026 16.451 C 32.469 18.387 28.79 19.576 25.136 20.079 Z" fill="#F26521"/>
  <path d="M 25.136 20.079 C 22.97 18.472 20.977 16.653 19.205 14.676 C 17.807 16.459 16.229 18.136 14.538 19.619 C 17.947 20.402 21.528 20.575 25.136 20.079 Z" fill="#F04E22"/>
  <path d="M 17.091 44.309 C 22.152 45.563 27.323 44.982 31.818 42.932 C 29.371 42.681 26.912 42.182 24.487 41.473 C 22.161 42.616 19.69 43.574 17.091 44.309 Z" fill="#21409A"/>
  <path d="M 10.477 34.866 C 12.165 38.64 14.376 41.936 17.091 44.309 C 17.869 42.932 18.631 41.367 19.365 39.652 C 16.252 38.345 13.255 36.721 10.477 34.866 Z" fill="#21409A"/>
  <path d="M 17.091 44.309 C 19.69 43.574 22.161 42.616 24.487 41.473 C 22.757 40.968 21.045 40.356 19.365 39.651 C 18.631 41.366 17.868 42.932 17.091 44.309 Z" fill="#0066B3"/>
  <path d="M 22.202 31.858 C 24.345 34.549 26.653 36.953 29.038 38.9 C 32.109 36.918 34.862 34.614 37.255 32.116 C 32.651 33.305 27.385 33.161 22.202 31.858 Z" fill="#812990"/>
  <path d="M 7.293 24.346 C 7.959 28.018 9.023 31.619 10.477 34.866 C 14.268 34.303 18.281 33.328 22.202 31.858 C 16.872 30.518 11.631 27.951 7.293 24.346 Z" fill="#812990"/>
  <path d="M 22.202 31.858 C 19.266 28.174 16.638 23.951 14.538 19.619 C 12.27 21.61 9.799 23.255 7.293 24.345 L 7.293 24.346 C 11.63 27.952 16.872 30.519 22.202 31.858" fill="#B8282E"/>
  <path d="M 6.482 16.435 C 6.543 19.039 6.816 21.711 7.294 24.346 C 9.8 23.254 12.269 21.61 14.538 19.619 C 11.704 18.967 8.991 17.896 6.482 16.435 Z" fill="#E31F26"/>
  <path d="M 25.136 20.079 C 21.528 20.575 17.947 20.402 14.538 19.619 C 16.638 23.951 19.268 28.174 22.202 31.858 C 23.351 28.157 24.354 24.15 25.136 20.079 Z" fill="#D22329"/>
  <path d="M 34.328 25.151 C 36.617 26.029 38.994 26.677 41.427 27.06 C 42.804 25.113 43.977 23.107 44.934 21.089 C 43.131 20.86 41.482 20.311 39.991 19.513 C 38.32 21.631 36.408 23.504 34.328 25.151 Z" fill="#F47920"/>
  <path d="M 7.293 24.346 C 4.718 22.205 2.463 19.698 0.696 16.866 C -0.078 19.849 -0.211 22.874 0.223 25.78 C 2.518 25.915 4.923 25.378 7.293 24.346 Z" fill="#91268F"/>
  <path d="M 7.293 24.346 C 6.815 21.71 6.544 19.039 6.482 16.435 C 4.895 15.513 3.389 14.433 1.987 13.21 C 1.753 13.726 1.537 14.255 1.34 14.796 C 1.091 15.482 0.876 16.173 0.696 16.866 C 2.463 19.698 4.718 22.205 7.293 24.346 Z" fill="#C9242B"/>
  <path d="M 0.223 25.78 C 0.743 29.266 2.078 32.582 4.1 35.448 C 6.107 35.384 8.254 35.196 10.476 34.866 C 6.51 32.219 2.99 29.104 0.223 25.78 Z" fill="#0054A6"/>
  <path d="M 7.293 24.346 C 4.923 25.377 2.518 25.914 0.222 25.78 C 2.99 29.103 6.509 32.218 10.477 34.866 C 9.023 31.619 7.959 28.018 7.293 24.346 Z" fill="#293896"/>
  <path d="M 17.091 44.309 C 14.376 41.935 12.164 38.639 10.477 34.866 C 8.255 35.196 6.108 35.384 4.099 35.448 C 6.654 39.069 10.303 41.976 14.784 43.606 C 15.55 43.884 16.319 44.118 17.091 44.309 Z" fill="#0066B3"/>
  <path d="M 24.487 41.473 C 26.912 42.183 29.37 42.681 31.818 42.931 C 32.436 42.65 33.04 42.34 33.63 42.004 C 32.083 41.18 30.545 40.131 29.038 38.9 C 27.59 39.834 26.071 40.696 24.487 41.473 Z" fill="#0054A6"/>
  <path d="M 37.254 32.115 C 39.738 31.473 42.028 30.444 44.008 28.999 C 44.169 28.466 44.31 27.929 44.432 27.392 C 43.423 27.328 42.42 27.216 41.427 27.06 C 40.194 28.804 38.8 30.501 37.254 32.115 Z" fill="#E44126"/>
  <path d="M 44.934 21.089 C 43.978 23.107 42.804 25.113 41.427 27.06 C 42.42 27.216 43.423 27.329 44.431 27.393 C 44.905 25.288 45.065 23.167 44.934 21.089 Z" fill="#F7931D"/>
  <path d="M 29.037 38.9 C 30.545 40.132 32.083 41.18 33.63 42.005 C 38.098 39.458 41.719 35.378 43.616 30.171 C 43.757 29.781 43.888 29.391 44.007 28.999 C 42.028 30.444 39.739 31.474 37.254 32.116 C 34.862 34.614 32.11 36.918 29.037 38.9 Z" fill="#9D2C4E"/>
  <path d="M 26.706 8.503 C 28.272 8.957 29.928 9.269 31.726 9.46 C 30.721 6.856 30.136 4.05 29.99 1.297 C 28.959 0.932 27.917 0.646 26.875 0.437 C 26.979 2.99 26.914 5.707 26.706 8.503 Z" fill="#FCAF16"/>
  <path d="M 26.706 8.503 C 26.914 5.707 26.979 2.99 26.875 0.437 C 26.332 0.328 25.788 0.24 25.245 0.172 C 25.241 2.438 24.642 4.895 23.596 7.363 C 24.601 7.813 25.631 8.192 26.706 8.503 Z" fill="#F99C1B"/>
  <path d="M 6.482 16.435 C 8.992 17.896 11.704 18.967 14.538 19.619 C 11.971 14.326 10.195 8.871 9.612 4.043 C 8.921 4.524 8.255 5.044 7.62 5.603 C 6.765 8.833 6.39 12.559 6.482 16.435 Z" fill="#F04E22"/>
  <path d="M 19.205 14.677 C 15.973 11.07 13.474 6.937 12.004 2.592 C 11.179 3.025 10.38 3.51 9.612 4.044 C 10.195 8.872 11.971 14.326 14.538 19.62 C 16.229 18.135 17.807 16.459 19.205 14.677 Z" fill="#F37021"/>
  <path d="M 23.596 7.362 C 20.641 6.033 17.918 4.065 15.022 1.277 C 13.985 1.642 12.976 2.081 12.004 2.592 C 13.475 6.935 15.972 11.07 19.205 14.677 C 21.025 12.356 22.54 9.855 23.596 7.362 Z" fill="#F7931D"/>
  <path d="M 31.726 9.46 C 32.739 12.083 34.178 14.499 36.026 16.451 C 38.207 15.264 40.341 13.795 42.392 12.032 C 41.948 11.187 41.452 10.371 40.903 9.588 C 37.421 9.765 34.416 9.748 31.726 9.46 Z" fill="#F5821F"/>
  <path d="M 39.991 19.513 C 41.275 17.886 42.418 16.113 43.384 14.187 C 43.091 13.452 42.76 12.732 42.392 12.032 C 40.34 13.795 38.206 15.263 36.026 16.451 C 37.188 17.677 38.511 18.719 39.991 19.513 Z" fill="#F7931D"/>
  <path d="M 44.934 21.089 C 44.785 18.705 44.255 16.376 43.384 14.187 C 42.418 16.113 41.275 17.886 39.992 19.513 C 41.481 20.311 43.13 20.86 44.934 21.089 Z" fill="#F26521"/>
  <path d="M 25.136 20.079 C 25.879 16.211 26.423 12.284 26.705 8.503 C 25.631 8.192 24.6 7.813 23.596 7.362 C 22.539 9.854 21.024 12.356 19.205 14.676 C 20.977 16.653 22.97 18.472 25.136 20.079 Z" fill="#F5821F"/>
  <path d="M 22.202 31.858 C 21.33 34.666 20.374 37.299 19.365 39.652 C 21.044 40.356 22.758 40.968 24.487 41.474 C 26.071 40.696 27.59 39.834 29.038 38.9 C 26.653 36.953 24.345 34.549 22.202 31.858 Z" fill="#21409A"/>
  <path d="M 22.202 31.858 C 18.281 33.329 14.269 34.304 10.477 34.866 C 13.255 36.72 16.253 38.346 19.365 39.652 C 20.374 37.299 21.33 34.666 22.202 31.858 Z" fill="#9A258F"/>
  <path d="M 22.202 31.858 C 27.385 33.161 32.651 33.305 37.255 32.116 C 38.799 30.5 40.195 28.804 41.427 27.06 C 38.994 26.678 36.617 26.028 34.328 25.15 C 30.666 28.051 26.489 30.251 22.202 31.858 Z" fill="#D22329"/>
  <path d="M 7.62 5.602 C 5.279 7.656 3.337 10.222 1.987 13.21 C 3.389 14.434 4.896 15.512 6.482 16.435 C 6.39 12.558 6.764 8.832 7.62 5.602 Z" fill="#F37021"/>
  <path d="M 40.904 9.587 C 38.347 5.933 34.682 3.002 30.17 1.361 C 30.111 1.339 30.05 1.318 29.99 1.296 C 30.136 4.05 30.721 6.857 31.726 9.46 C 34.416 9.747 37.42 9.765 40.904 9.587 Z" fill="#FFC20D"/>
  <path d="M 25.245 0.172 C 21.739 -0.266 18.245 0.143 15.022 1.277 C 17.918 4.065 20.641 6.033 23.596 7.362 C 24.642 4.896 25.241 2.438 25.245 0.172 Z" fill="#FFC20D"/>
</svg>